<svg viewBox="0 0 24 24"><mask id="airplay__a" width="20" height="17" x="2" y="4" maskUnits="userSpaceOnUse" style="mask-type:alpha"><path fill-rule="evenodd" d="M2 4h20v17h-3.172L12 14.172 5.17 21H2V4Z" clip-rule="evenodd"/></mask><g mask="url(#airplay__a)"><path d="M20 4H4c-1.103 0-2 .897-2 2l-.002 11c0 1.103.897 2 2 2h16c1.103 0 2-.897 2-2L22 6c0-1.103-.897-2-2-2ZM3.998 17 4 6h16v11H3.998Z"/></g><path fill-opacity=".2" d="M2 17V6c0-2 2-2 2-2h16s2 0 2 2v11c0 2-2 2-2 2H4s-2 0-2-2Z"/><path d="M16 21H8l4-4 4 4Z"/></svg>