<svg viewBox="0 0 24 24"><path d="m2.661 4.161 1.414-1.414 17.678 17.677-1.414 1.415z"/><mask id="captions-off__a" width="20" height="16" x="2" y="4" maskUnits="userSpaceOnUse" style="mask-type:alpha"><path fill-rule="evenodd" d="M2 6.328v11.539C2 20 4 20 4 20h11.672L2 6.328Zm.853-1.975L18.5 20H20s2 0 2-2.133V6.133C22 4 20 4 20 4H4s-.603 0-1.147.353Z" clip-rule="evenodd"/></mask><g mask="url(#captions-off__a)"><path d="M6 10v4c0 1.103.897 2 2 2h3v-2H8v-4h3V8H8c-1.103 0-2 .897-2 2Zm7 0v4c0 1.103.897 2 2 2h3v-2h-3v-4h3V8h-3c-1.103 0-2 .897-2 2Z"/><path d="M20 4H4c-1.103 0-2 .897-2 2v12c0 1.103.897 2 2 2h16c1.103 0 2-.897 2-2V6c0-1.103-.897-2-2-2ZM4 18V6h16l.002 12H4Z"/><path fill-opacity=".2" d="M2 17.867V6.133C2 4 4 4 4 4h16s2 0 2 2.133v11.734C22 20 20 20 20 20H4s-2 0-2-2.133Z"/></g></svg>